<svg width="90" height="144" viewBox="0 0 90 144" fill="none" xmlns="http://www.w3.org/2000/svg">
<circle cx="75.2472" cy="47.2035" r="14" transform="rotate(-3.01132 75.2472 47.2035)" fill="#92DBCD"/>
<path d="M48.2184 60.7008C57.6594 57.8781 61.5107 53.9199 63.0193 48.0195C63.4515 56.2087 73.8602 60.1485 73.425 60.1645C66.425 60.4212 61.6711 65.6341 58.249 73.1673C55.1184 61.6388 48.0007 60.7659 48.2184 60.7008Z" fill="#92DBCD" stroke="#92DBCD" stroke-width="0.1"/>
<circle cx="44.583" cy="128.374" r="14" transform="rotate(-3.01132 44.583 128.374)" fill="#94DCA4"/>
<path d="M31.5226 127.241C27.9988 118.039 23.7626 114.495 17.7656 113.434C25.8992 112.388 29.0462 101.713 29.0948 102.146C29.8765 109.107 35.4317 113.456 43.2005 116.302C31.9397 120.29 31.6038 127.453 31.5226 127.241Z" fill="#94DCA4" stroke="#92DBCD" stroke-width="0.1"/>
<circle cx="15.9922" cy="99.5375" r="14" transform="rotate(-3.01132 15.9922 99.5375)" fill="#92DBCD"/>
<path d="M16.2115 88.412C25.6526 85.5892 29.5039 81.631 31.0124 75.7307C31.4446 83.9199 41.8534 87.8597 41.4182 87.8756C34.4182 88.1323 29.6642 93.3453 26.2422 100.878C23.1116 89.35 15.9939 88.4771 16.2115 88.412Z" fill="#92DBCD" stroke="#92DBCD" stroke-width="0.1"/>
<circle cx="72.7798" cy="102.88" r="14" transform="rotate(-3.01132 72.7798 102.88)" fill="#94DCA4"/>
<path d="M59.7193 101.747C56.1955 92.5445 51.9593 89.0013 45.9623 87.9401C54.0959 86.8941 57.2429 76.2189 57.2915 76.6517C58.0732 83.6127 63.6284 87.9617 71.3972 90.8084C60.1365 94.7959 59.8005 101.959 59.7193 101.747Z" fill="#94DCA4" stroke="#92DBCD" stroke-width="0.1"/>
<circle cx="44.1889" cy="74.0435" r="14" transform="rotate(-3.01132 44.1889 74.0435)" fill="#92DBCD"/>
<path d="M31.0108 71.917C27.487 62.7146 23.2508 59.1714 17.2538 58.1102C25.3874 57.0642 28.5345 46.389 28.5831 46.8218C29.3647 53.7827 34.9199 58.1318 42.6888 60.9785C31.428 64.966 31.092 72.1291 31.0108 71.917Z" fill="#92DBCD" stroke="#92DBCD" stroke-width="0.1"/>
<path d="M29.6383 44.9735C30.0445 52.6948 24.1144 59.2834 16.3931 59.6896C8.67176 60.0958 2.08312 54.1657 1.67693 46.4444C1.27075 38.7231 7.20083 32.1345 14.9221 31.7283C22.6434 31.3221 29.2321 37.2522 29.6383 44.9735Z" fill="#92DBCD"/>
<path d="M17.0631 32.0667C25.9531 27.8159 29.145 23.309 29.7216 17.2462C31.4168 25.2697 42.3101 27.55 41.8826 27.6332C35.0068 28.9708 31.1175 34.8571 28.9033 42.8293C24.0252 31.9248 16.8582 32.1647 17.0631 32.0667Z" fill="#92DBCD" stroke="#92DBCD" stroke-width="0.1"/>
<circle cx="42.2136" cy="14.865" r="14" transform="rotate(-3.01132 42.2136 14.865)" fill="#92DBCD"/>
</svg>
