<svg width="500" height="508" viewBox="0 0 500 508" fill="none" xmlns="http://www.w3.org/2000/svg">
<path d="M499.794 258.159C499.794 258.12 499.798 258.073 499.798 258.034C499.798 257.581 499.747 257.127 499.673 256.674C499.669 256.631 499.669 256.573 499.661 256.53L497.981 247.499C497.954 247.381 497.931 247.268 497.907 247.159L474.348 144.529C474.243 144.06 474.087 143.599 473.895 143.146C473.88 143.095 473.856 143.044 473.84 143.001C473.708 142.705 473.555 142.404 473.387 142.111C473.321 141.997 473.255 141.904 473.184 141.802C473.157 141.767 473.141 141.724 473.11 141.685L424.321 69.345C424.321 69.345 424.321 69.3411 424.317 69.3411C424.063 68.9622 423.762 68.6067 423.442 68.2669C423.38 68.2044 423.325 68.1419 423.258 68.0755C423.216 68.0247 423.169 67.9739 423.126 67.931C422.844 67.6692 422.544 67.431 422.235 67.2083C422.212 67.1927 422.192 67.1692 422.161 67.1419L354.86 20.0249C354.825 19.9976 354.786 19.9858 354.754 19.9624C354.614 19.8608 354.469 19.7788 354.325 19.6929C354.219 19.6186 354.106 19.5522 353.985 19.4897C353.946 19.4741 353.911 19.4468 353.872 19.4272C353.754 19.3647 353.641 19.3257 353.524 19.271C353.407 19.2202 353.293 19.1655 353.184 19.1147C352.993 19.0405 352.813 18.9819 352.629 18.9194C352.536 18.8921 352.45 18.853 352.356 18.8296C352.122 18.7554 351.875 18.7007 351.633 18.6616C351.594 18.6499 351.555 18.6382 351.516 18.6265L351.481 18.6225C351.465 18.6186 351.446 18.6108 351.426 18.6108L250.586 0.12283H250.574C250.508 0.111111 250.442 0.107205 250.364 0.095486C250.258 0.079861 250.145 0.0681425 250.028 0.0564235C249.864 0.0407985 249.703 0.0173608 249.539 0.0134548C249.5 0.00954875 249.461 0.001736 249.426 0.001736H249.387H249.184C249.032 0.001736 248.875 -0.00217 248.723 0.001736C248.606 0.005643 248.492 0.0173605 248.371 0.0251735C248.309 0.0290795 248.242 0.0368925 248.176 0.0407985C248.086 0.0525165 248.004 0.0564233 247.914 0.0681423C247.735 0.0915793 247.555 0.12283 247.375 0.157986C247.301 0.173611 247.223 0.181424 247.153 0.200955L247.008 0.228299L247.004 0.232205L144.524 23.7522C144.509 23.7561 144.489 23.7639 144.462 23.7678C144.009 23.8811 143.567 24.0256 143.118 24.217C143.075 24.2327 143.016 24.2561 142.966 24.2835C142.544 24.467 142.141 24.6936 141.743 24.9514C141.719 24.9631 141.692 24.9749 141.669 24.9866L69.3286 73.7796C69.313 73.7835 69.3052 73.7952 69.2857 73.8069C68.9107 74.0647 68.563 74.3538 68.231 74.6741C68.188 74.7171 68.1255 74.7601 68.0864 74.8069C68.0474 74.8421 68.0122 74.8733 67.9732 74.9007C67.6919 75.2015 67.4419 75.5179 67.2075 75.8343C67.1802 75.8694 67.1528 75.9007 67.1294 75.9397L20.0394 143.245C19.9847 143.323 19.9379 143.401 19.8871 143.479C19.7933 143.624 19.6957 143.772 19.6175 143.917C19.555 144.018 19.5043 144.12 19.4535 144.217C19.3675 144.381 19.2816 144.549 19.2113 144.721C19.1722 144.815 19.1371 144.913 19.0941 145.003C19.0199 145.186 18.9613 145.374 18.9027 145.557C18.8675 145.651 18.8402 145.749 18.8168 145.842C18.7621 146.034 18.7152 146.217 18.6839 146.409C18.6722 146.471 18.6566 146.526 18.6449 146.581L0.124885 247.531C0.120978 247.585 0.120979 247.644 0.10926 247.703C0.0662923 247.956 0.0428535 248.21 0.0194165 248.476C0.0194165 248.57 0.00769777 248.671 0.00769777 248.777C-0.00402123 249.097 -0.00402148 249.41 0.0194165 249.734C0.0194165 249.738 0.0194168 249.761 0.0233228 249.769C0.0467598 250.109 0.101444 250.437 0.175659 250.773C0.187378 250.851 0.210815 250.929 0.218628 251.007C0.285034 251.269 0.359254 251.523 0.449104 251.792C0.472542 251.859 0.492073 251.933 0.523323 252.003C0.757703 252.621 1.06238 253.23 1.4491 253.796C1.50378 253.89 1.56629 253.96 1.63269 254.054C1.71082 254.16 1.78503 254.273 1.87488 254.39C1.93738 254.468 2.00379 254.535 2.08191 254.613C2.15613 254.703 2.22253 254.777 2.30457 254.859C2.30457 254.863 2.30848 254.871 2.31629 254.882C1.67176 256.441 1.48817 258.214 1.89051 259.984L25.4455 362.604C25.4494 362.627 25.4689 362.659 25.4729 362.69C25.5861 363.143 25.7307 363.592 25.9104 364.03C25.9338 364.073 25.9533 364.123 25.9729 364.162C26.1643 364.588 26.3947 365.014 26.6604 365.416C26.6643 365.428 26.6721 365.444 26.676 365.452L75.465 437.799C75.4806 437.815 75.504 437.839 75.5158 437.862C75.7697 438.233 76.0587 438.581 76.3673 438.905C76.4337 438.983 76.5001 439.046 76.5704 439.108C76.672 439.214 76.7618 439.315 76.8712 439.409C76.9884 439.522 77.1329 439.592 77.2579 439.706C77.3868 439.8 77.4923 439.917 77.629 440.014L144.926 487.116C145 487.179 145.082 487.23 145.168 487.269C145.27 487.343 145.364 487.409 145.469 487.472C145.496 487.487 145.535 487.507 145.571 487.523C145.84 487.679 146.117 487.82 146.399 487.945C146.465 487.972 146.528 488.007 146.59 488.03C146.883 488.148 147.172 488.241 147.469 488.331C147.598 488.374 147.739 488.394 147.871 488.425C148 488.46 148.129 488.503 148.25 488.526L249.19 507.035C249.253 507.046 249.307 507.038 249.354 507.05C249.471 507.066 249.608 507.093 249.725 507.113C250.018 507.148 250.307 507.163 250.612 507.167C250.639 507.167 250.675 507.171 250.714 507.171H250.729C250.757 507.171 250.78 507.167 250.792 507.167C251.155 507.167 251.526 507.132 251.886 507.081C251.972 507.066 252.05 507.058 252.128 507.046C252.218 507.035 252.292 507.007 252.382 506.995C252.46 506.972 252.546 506.968 252.624 506.945L355.064 483.441C355.915 483.269 356.755 482.952 357.556 482.499C357.556 482.495 357.56 482.495 357.568 482.488C357.63 482.448 357.685 482.413 357.747 482.37C357.759 482.37 357.763 482.37 357.771 482.366C357.9 482.288 358.029 482.202 358.158 482.12L430.189 433.534C431.286 432.847 432.22 431.917 432.915 430.812L479.735 363.91C479.79 363.835 479.825 363.777 479.868 363.707C479.981 363.539 480.087 363.367 480.181 363.179C480.224 363.105 480.266 363.039 480.306 362.957C480.407 362.773 480.497 362.585 480.579 362.386C480.618 362.3 480.642 362.23 480.673 362.144C480.751 361.953 480.817 361.765 480.88 361.562C480.915 361.468 480.934 361.382 480.966 361.289C481.009 361.105 481.06 360.917 481.095 360.722C481.11 360.667 481.122 360.621 481.134 360.566L499.665 259.606C499.669 259.555 499.669 259.5 499.676 259.442C499.712 259.278 499.731 259.11 499.755 258.954C499.782 258.688 499.786 258.43 499.786 258.161L499.794 258.159ZM467.192 342.671L428.501 308.241L479.474 275.71L467.192 342.671ZM431.305 403.538L421.024 324.288L461.54 360.343L431.305 403.538ZM104.235 437.905L171.848 426.241L147.157 467.956L104.235 437.905ZM21.938 271.475L75.083 316.225L38.942 345.553L21.938 271.475ZM32.876 163.045L68.661 189.611L20.954 228.107L32.876 163.045ZM67.474 105.076L72.6107 171.42L38.6697 146.221L67.474 105.076ZM144.626 43.4817L170.481 76.5837L100.149 73.4743L144.626 43.4817ZM394.276 68.3257L334.581 75.5327L353.104 39.5017L394.276 68.3257ZM454.022 143.709L420.057 163.779L424.166 99.4507L454.022 143.709ZM307.902 392.819L265.695 360.479L315.828 347.94L307.902 392.819ZM192.272 100.569L231.42 135.374L174.865 149.507L192.272 100.569ZM307.512 85.0647L252.7 131.221H252.29L200.087 84.8187L249.567 21.5997L307.512 85.0647ZM313.969 101.799L323.852 156.686L272.254 136.924L313.969 101.799ZM360.403 237.179L346.079 179.898L395.645 185.952L360.403 237.179ZM402.684 169.73L342.102 162.327L329.661 93.2184L408.184 83.7379L402.684 169.73ZM128.214 263.289L141.749 317.434L101.659 310.148L128.214 263.289ZM128.175 225.066L97.6869 192.988L147.109 175.633L128.175 225.066ZM154.937 154.918L90.1129 177.676L83.2926 89.7147L176.66 93.8358L154.937 154.918ZM81.7489 200.844L120.815 241.938L86.0449 303.29L21.8149 249.2L81.7489 200.844ZM96.3739 326.424L147.069 335.643L176.655 408.212L91.5069 422.901L96.3739 326.424ZM190.804 397.975L168.409 343.057L218.53 362.252L190.804 397.975ZM160.324 321.795L140.168 241.19L167.914 168.737L250.102 148.19H254.219L327.703 176.331L347.859 256.936L320.109 329.393L237.921 349.94H233.804L160.324 321.795ZM360.064 272.502L394.498 305.861L340.693 323.076L360.064 272.502ZM411.662 298.865L367.787 256.365L411.857 192.342L477.763 256.686L411.662 298.865ZM317.76 71.1447L272.311 21.3677L337.237 33.2657L317.76 71.1447ZM188.51 72.1017L161.334 37.3207L227.643 22.0977L188.51 72.1017ZM78.9699 334.932L75.3215 407.233L45.0915 362.409L78.9699 334.932ZM189.3 430.088L231.128 486.447L163.3 474.013L189.3 430.088ZM250.53 484.143L199.143 414.893L236.393 366.901H246.186L302.237 409.846L250.53 484.143ZM333.921 343.063L403.472 320.801L415.835 416.117L323.683 401.058L333.921 343.063ZM424.421 180.913L460.425 159.643L477.113 232.358L424.421 180.913ZM270.261 485.503L313.257 423.757L340.187 469.46L270.261 485.503ZM356.105 463.058L330.343 419.343L403.253 431.265L356.105 463.058Z" fill="#74D3D1"/>
</svg>
