<svg width="504" height="342" viewBox="0 0 504 342" fill="none" xmlns="http://www.w3.org/2000/svg">
<path d="M504 95.7615C504 95.2029 504 94.6404 503.442 94.6404C503.442 94.0818 503.442 93.5193 502.883 93.5193C502.883 92.9607 502.325 92.3982 502.325 92.3982C502.325 91.8396 501.766 91.8396 501.766 91.2771C501.207 90.7185 501.207 90.156 500.645 90.156L500.086 89.5974L498.965 88.4763C498.399 86.8005 498.399 86.8005 497.84 86.238L368.48 0H135.52L6.16016 86.238C5.60157 86.8005 5.60157 86.8005 5.03906 87.3591C4.48047 87.9177 4.48047 87.9177 3.91796 88.4802L2.23827 90.1599C2.23827 90.7185 1.67967 90.7185 1.67967 91.281C1.67967 91.8396 1.12109 91.8396 1.12109 92.4021C1.12109 92.9607 1.12108 93.5232 0.562492 93.5232C0.562492 94.0818 0.562496 94.6443 0.00390625 94.6443V95.7654C2.5006e-07 97.4412 0 97.9998 0 97.9998V99.1209V100.801C0 101.359 -3.8743e-06 101.922 0.558586 101.922C0.558586 102.48 0.55859 103.043 1.11718 103.043C1.11718 103.601 1.67577 104.164 1.67577 104.723C1.67577 105.281 2.23436 105.281 2.23436 105.844C2.23436 106.402 2.79294 106.402 3.35545 106.965C3.91404 107.523 3.91404 107.523 4.47655 108.086L251.997 341.036L499.517 108.076C500.075 107.517 500.638 106.396 501.755 105.837C501.755 105.279 502.313 105.279 502.313 104.716C502.313 104.158 502.872 103.595 502.872 103.037C502.872 102.478 503.431 101.916 503.431 101.916C503.431 101.357 503.989 100.794 503.989 100.794V99.1148V97.9937V96.8726C503.997 96.3179 503.997 95.7593 503.997 95.7593L504 95.7615ZM428.398 73.9215L450.796 91.2805H426.155L424.476 71.6785L428.398 73.9215ZM261.518 27.9995L306.877 55.9995L251.998 89.6015L197.119 55.9995L242.478 27.9995H261.518ZM260.397 105.28H332.635L281.674 227.361L260.397 105.28ZM271.6 251.44L251.998 302.397L232.396 251.436L251.998 138.876L271.6 251.44ZM276.639 91.2805L317.518 66.0815L330.959 91.2805H276.639ZM227.358 91.2805H173.038L186.479 66.0815L227.358 91.2805ZM156.237 105.28L203.276 218.4L99.6763 105.28H156.237ZM171.358 105.28H243.596L222.315 227.361L171.358 105.28ZM347.758 105.28H404.317L300.717 217.84L347.758 105.28ZM347.196 91.2805L335.997 69.9995L385.837 90.7185H347.196V91.2805ZM287.837 27.9995H330.396L318.076 46.4795L287.837 27.9995ZM216.157 27.9995L185.919 46.4795L173.599 27.9995H216.157ZM156.798 91.2805H118.72L167.997 69.9995L156.798 91.2805ZM52.6378 91.2805L75.0358 73.9215L78.3952 71.6832L76.7155 91.2852L52.6378 91.2805ZM80.0758 105.28L137.197 194.883L41.9978 105.28H80.0758ZM132.717 161.28L219.518 255.358L229.037 280.557L178.639 233.518L132.717 161.28ZM274.957 281.12L284.476 255.922L371.277 161.844L325.355 234.081L274.957 281.12ZM423.917 105.28H461.995L366.796 194.883L423.917 105.28ZM409.917 61.6005L412.155 87.3625L330.393 53.2025L347.194 28.5615H359.514L409.917 61.6005ZM144.477 27.9985H156.797L173.598 52.6395L91.8358 86.7995L94.0741 61.0375L144.477 27.9985Z" fill="#74D3D1"/>
</svg>
